<svg id="Layer_1" data-name="Layer 1" xmlns="http://www.w3.org/2000/svg" viewBox="0 0 602.338 549.72">
  <path d="M552.381,549.72a49.958,49.958,0,0,0,49.908-52.168c-1.644-37.173-25.269-90.449-89.664-138.565-89.347-66.76-30.439-219.2-147.724-235.115C172.121,97.708,208.591,268.817,89.554,331.2,13.782,370.911.005,448.609,0,499.842A49.924,49.924,0,0,0,49.954,549.72Z" fill="#f3f5fd"/>
  <path d="M497.87,544.407c16.573-5.136,32.653-11.848,47.3-30.634,3.007-3.849,5.832-8.781,4.185-13.388-1.24-3.467-4.827-5.688-8.472-6.256a17.564,17.564,0,0,0-4.1-.112c-.007,0-.013,0-.016,0a34.541,34.541,0,0,0-6.2,1.217l-.579.165a102.144,102.144,0,0,0-27.336,12.346,4.026,4.026,0,0,1-5.608-5.481,24.367,24.367,0,0,1,3-3.931,38.742,38.742,0,0,1,5.451-4.727c2.606-1.9,5.386-3.6,8.106-5.333a224.528,224.528,0,0,0,28.652-21.652c6.393-5.695,12.645-12.016,15.684-20.022,1.4-3.683,2.031-7.927.366-11.5-2.748-5.861-10.532-7.5-16.9-6.283-11.154,2.136-20.065,10.312-27.967,18.462-6.552,6.772-13.895,14.27-23.31,14.687a8.256,8.256,0,0,1-4.641-.931c-2.685-1.627-3.376-5.4-2.419-8.388s3.172-5.384,5.311-7.68c12.426-13.332,24.656-27.2,32.725-43.537s11.644-35.623,6.036-52.966c-1.643-5.071-4.114-10-7.967-13.688s-9.258-5.994-14.548-5.288c-7.207.949-12.634,7.032-16.287,13.311-12.553,21.551-11.785,47.955-15.32,72.641-.99,6.91-2.43,14-6.544,19.687a4.668,4.668,0,0,1-1.444,1.347c-3.387,1.961-6.427-1.994-7.7-5.351-5.022-13.278-6.276-28.464-15.265-39.455-3.43-4.183-8.286-7.68-13.694-7.646-6.606.045-12.263,5.564-14.191,11.884s-.774,13.185,1.291,19.46c3.834,11.637,10.707,22.088,18.8,31.279,4.271,4.851,9.1,9.753,10.378,16.082a12.828,12.828,0,0,1-4.028,11.826,7.513,7.513,0,0,1-5.568,1.821,15.41,15.41,0,0,1-6.021-2.38c-.793-.452-1.589-.91-2.39-1.36q-4.737-2.7-9.474-5.4c-8.029-4.581-17.724-9.261-26.087-5.316-4.272,2.016-7.064,5.981-8.379,10.531a23.04,23.04,0,0,0,0,12.633c2.491,8.588,18.192,32.485,24.668,38.648C414.934,530.93,441.163,561.982,497.87,544.407Z" fill="#c1d8ed"/>
  <g>
    <g>
      <path d="M144.258,273.948c19.95,87.888,38.015,176.367,52.271,265.368l-20.04,4.122c-22.031-87.4-40.358-175.827-56.718-264.453Z" fill="#eda59f"/>
      <path d="M103.02,279.393c1.832,87.312,1.7,174.82-2.271,262.074H80.29c-3.969-87.252-4.1-174.763-2.27-262.074Z" fill="#eda59f"/>
      <path d="M127.219,549.533a4.108,4.108,0,0,0,4.076-4.427h0a4.107,4.107,0,0,0-2.659-3.529l-24.442-8.187a3.463,3.463,0,0,0-2.873.32,19.108,19.108,0,0,1-11.467,3.4,17.035,17.035,0,0,1-8.821-3.222,1.546,1.546,0,0,0-2.527,1.2v11.952a2.678,2.678,0,0,0,2.689,2.678Z" fill="#c1d8ed"/>
      <path d="M220.952,549.533a4.107,4.107,0,0,0,4.076-4.427h0a4.108,4.108,0,0,0-2.658-3.529l-24.443-8.187a3.461,3.461,0,0,0-2.872.32,19.112,19.112,0,0,1-11.468,3.4,17.031,17.031,0,0,1-8.82-3.222,1.547,1.547,0,0,0-2.528,1.2v11.952a2.678,2.678,0,0,0,2.689,2.678Z" fill="#c1d8ed"/>
      <path d="M65.346,241.7s-11.359,50.871-11.359,93.654S40.943,444.394,40.943,444.394s36.967-5.979,62.044,0c43.209,10.3,81.952-12.132,81.952-12.132L141.423,246.393Z" fill="#55affc"/>
    </g>
    <g>
      <g>
        <path d="M88.863,137.17s7.732-4.1,6.006-25.157l15.976-2.962s-1.8,18.879,6.288,24.872Z" fill="#eda59f"/>
        <g opacity="0.15">
          <path d="M113.859,129.977l-13.272-10.154,10.424-.108A28.741,28.741,0,0,0,113.859,129.977Z"/>
        </g>
        <path d="M85.8,103.848c1.106,6.389,4.592,12.439,10.228,14.5a40.5,40.5,0,0,0,19.357,2.616c17.49-1.434,14.03-41.2,5.727-48.927S88.443,69.206,85.478,82.126C83.945,88.808,84.751,97.768,85.8,103.848Z" fill="#eda59f"/>
        <g>
          <circle cx="110.823" cy="97.479" r="1.449" fill="#0f1011"/>
          <circle cx="122.254" cy="96.541" r="1.449" fill="#0f1011"/>
          <path d="M124.765,93.453h-.009l-3.839-.048a.681.681,0,0,1-.672-.689.713.713,0,0,1,.69-.672l3.839.048a.681.681,0,0,1-.009,1.361Z" fill="#0f1011"/>
          <path d="M107.7,94.853a.681.681,0,0,1-.159-1.343l3.785-.911a.681.681,0,0,1,.318,1.325l-3.784.91A.679.679,0,0,1,107.7,94.853Z" fill="#0f1011"/>
        </g>
        <path d="M95.806,117.587c-.332,1.062-.564,1.525-1.521.957-3.757-2.232-11.209-7.088-14.089-25.283-2.581-16.3,7.476-23.026,15.5-25.425,6.913-2.068,21.306-.607,29.073,3.617,5.761,3.133,1.546,11.534,1.546,11.534-2.884.133-2.253-7.521-9.056-7.521-5.26,0-9.893,7.783-14.818,7.99-4.508.189-5.434,2.937-5.274,4.695C98.133,98.837,96.98,113.831,95.806,117.587Z" fill="#0f1011"/>
        <path d="M103.285,101.024a6.143,6.143,0,1,1-12.244,1,6.04,6.04,0,0,1,5.62-6.624C101.039,95.261,103.008,97.643,103.285,101.024Z" fill="#eda59f"/>
        <g opacity="0.15">
          <path d="M117.255,105.516a.488.488,0,0,0,.146-.022l3.489-1.072a.5.5,0,0,0,.309-.683l-2.294-5.107a.5.5,0,1,0-.912.41l2.062,4.591-2.947.905a.5.5,0,0,0,.147.978Z"/>
        </g>
        <path d="M111.493,108.89s5.349.564,9.1-.746c0,0-.03,3.523-4.262,3.87S111.493,108.89,111.493,108.89Z" fill="#fff"/>
      </g>
      <path d="M125.244,71.994c5.184,3.472,4.164,10.124,3.191,15.9h-6.418l-2.692-9.342-3.283,9.342-25.022.865,3.017-12.409" fill="#0f1011"/>
      <circle cx="78.189" cy="109.051" r="14.006" fill="#0f1011"/>
    </g>
    <path d="M167.934,163.253s7.487-11.894,7.18-15.115-9.664-6.479-9.664-6.479,1.354-2.849,2.56-5.975c1.393-3.607,2.589-7.585,1.284-7.981-1.26-.382-3.17,2.893-4.921,6.7-2.249,4.887-4.234,10.648-4.234,10.648s-.206-5.69-2.311-5.328c-.864.149-1.23,1.177-1.233,5.256,0,4.647-.726,11.892-.726,11.892Z" fill="#eda59f"/>
    <path d="M144.164,216.575a10.9,10.9,0,0,0,10.1-6.8l19.6-48.266-20.2-8.2-5.933,14.614-4.658-23.279-21.381,4.278,11.785,58.894a10.9,10.9,0,0,0,9.666,8.715C143.48,216.558,143.823,216.575,144.164,216.575Z" fill="#2f3235"/>
    <path d="M179.546,177.443l-12.122-1.934a3.427,3.427,0,0,1-2.762-4.3l7.627-27.373a3.428,3.428,0,0,1,3.842-2.464l12.121,1.934a3.427,3.427,0,0,1,2.762,4.3l-7.627,27.373A3.426,3.426,0,0,1,179.546,177.443Z" fill="#c1d8ed"/>
    <path d="M160.024,170.27l7.15,9.7s19.215-3.851,21.018-18.655c.207-1.7.027-6.42-2.084-5.787-5.5,1.648-12.344,10.087-17.143,11.21,1.095-1.961,2.431-4.731,1.569-5.237C168.268,160.168,162.173,168.205,160.024,170.27Z" fill="#eda59f"/>
    <path d="M63.381,139.805c4.57-4.57,12.46-7.52,22.08-7.53.72,5.61,34.78,5.63,35.04.13,1.3.02,2.31.04,2.94.07,23.118,1,23.05,19.628,20.775,40.22l19.022-8.389,8.8,19.95-30.274,13.351c-.019.6-.035,1.2-.042,1.8-.39,32.46,8.38,38.58,4.06,48.5-4.19,9.63-86.52,13.63-87.62-3.31-.7-10.78,8.8-20.19,8.8-41.2S47.631,155.555,63.381,139.805Z" fill="#2f3235"/>
    <path d="M120.5,132.405c-.26,5.5-3.25,13.59-12.48,14.2-12.3.81-21.84-8.72-22.56-14.33h.03C97.6,132.275,113.441,132.295,120.5,132.405Z" fill="#eda59f"/>
  </g>
  <g>
    <polygon points="431.312 0 396.936 34.195 350.38 20.645 431.312 0" fill="#c1d8ed"/>
    <polygon points="431.312 0 444.267 50.785 363.334 71.43 350.38 20.645 396.936 34.195 431.312 0" fill="#dee8f5"/>
  </g>
  <path d="M349.4,56.992s-83.448,11.356-138.23,57.391" fill="none" stroke="#c1d8ed" stroke-linecap="round" stroke-linejoin="round"/>
  <path d="M341.665,39.652a350.428,350.428,0,0,0-87.218,26.041" fill="none" stroke="#c1d8ed" stroke-linecap="round" stroke-linejoin="round"/>
</svg>
